<mxfile host="app.diagrams.net" modified="2023-12-12T23:12:23.384Z" agent="Mozilla/5.0 (Windows NT 10.0; Win64; x64) AppleWebKit/537.36 (KHTML, like Gecko) Chrome/119.0.0.0 Safari/537.36 Edg/119.0.0.0" etag="gvut3DX-EpQLmbXvsLdZ" version="22.1.8" type="device">
  <diagram name="Page-1" id="kH9HlGgR92mIhM3kOMvW">
    <mxGraphModel dx="1729" dy="778" grid="1" gridSize="10" guides="1" tooltips="1" connect="1" arrows="1" fold="1" page="1" pageScale="1" pageWidth="850" pageHeight="1100" math="0" shadow="0">
      <root>
        <mxCell id="0" />
        <mxCell id="1" parent="0" />
        <mxCell id="XD0QU1pfszNTjQLgTIbI-4" style="edgeStyle=orthogonalEdgeStyle;rounded=0;orthogonalLoop=1;jettySize=auto;html=1;exitX=0.75;exitY=1;exitDx=0;exitDy=0;entryX=0.25;entryY=0;entryDx=0;entryDy=0;" edge="1" parent="1" source="XD0QU1pfszNTjQLgTIbI-1" target="XD0QU1pfszNTjQLgTIbI-3">
          <mxGeometry relative="1" as="geometry" />
        </mxCell>
        <mxCell id="XD0QU1pfszNTjQLgTIbI-5" style="edgeStyle=orthogonalEdgeStyle;rounded=0;orthogonalLoop=1;jettySize=auto;html=1;exitX=0.25;exitY=1;exitDx=0;exitDy=0;entryX=0.75;entryY=0;entryDx=0;entryDy=0;" edge="1" parent="1" source="XD0QU1pfszNTjQLgTIbI-1" target="XD0QU1pfszNTjQLgTIbI-2">
          <mxGeometry relative="1" as="geometry" />
        </mxCell>
        <mxCell id="XD0QU1pfszNTjQLgTIbI-1" value="&lt;font style=&quot;font-size: 24px;&quot;&gt;Main&lt;/font&gt;" style="rounded=1;whiteSpace=wrap;html=1;" vertex="1" parent="1">
          <mxGeometry x="360" y="100" width="120" height="60" as="geometry" />
        </mxCell>
        <mxCell id="XD0QU1pfszNTjQLgTIbI-2" value="&lt;font style=&quot;font-size: 24px;&quot;&gt;Encrypt&lt;/font&gt;" style="rounded=1;whiteSpace=wrap;html=1;" vertex="1" parent="1">
          <mxGeometry x="280" y="240" width="120" height="60" as="geometry" />
        </mxCell>
        <mxCell id="XD0QU1pfszNTjQLgTIbI-3" value="&lt;font style=&quot;font-size: 24px;&quot;&gt;Decrypt&lt;/font&gt;" style="rounded=1;whiteSpace=wrap;html=1;" vertex="1" parent="1">
          <mxGeometry x="440" y="240" width="120" height="60" as="geometry" />
        </mxCell>
        <mxCell id="XD0QU1pfszNTjQLgTIbI-6" value="&lt;font style=&quot;font-size: 18px;&quot;&gt;key&lt;br&gt;note&lt;/font&gt;" style="text;html=1;align=center;verticalAlign=middle;resizable=0;points=[];autosize=1;strokeColor=none;fillColor=none;" vertex="1" parent="1">
          <mxGeometry x="390" y="163" width="60" height="60" as="geometry" />
        </mxCell>
      </root>
    </mxGraphModel>
  </diagram>
</mxfile>
